HIERARCHY
ROOT Hips
{
	OFFSET 0.00 0.00 0.00
	CHANNELS 6 Xposition Yposition Zposition Xrotation Zrotation Yrotation
	JOINT Spine
	{
		OFFSET 0.00000 1.76680 2.65019
		CHANNELS 3 Xrotation Zrotation Yrotation
		JOINT Spine1
		{
			OFFSET 0.00000 0.61360 3.47991
			CHANNELS 3 Xrotation Zrotation Yrotation
			JOINT Spine2
			{
				OFFSET 0.00000 0.30797 3.52015
				CHANNELS 3 Xrotation Zrotation Yrotation
				JOINT Spine3
				{
					OFFSET 0.00000 0.00000 3.53359
					CHANNELS 3 Xrotation Zrotation Yrotation
					JOINT Neck
					{
						OFFSET 0.00000 -1.32510 9.27568
						CHANNELS 3 Xrotation Zrotation Yrotation
						JOINT Head
						{
							OFFSET 0.00000 -0.84370 4.78487
							CHANNELS 3 Xrotation Zrotation Yrotation
							End Site
							{
								OFFSET 0.00000 -0.00000 5.72000
							}
						}
					}
					JOINT RightShoulder
					{
						OFFSET -1.21056 -2.01760 6.53702
						CHANNELS 3 Zrotation Xrotation Yrotation
						JOINT RightArm
						{
							OFFSET -6.01245 -0.00000 0.00000
							CHANNELS 3 Yrotation Zrotation Xrotation
							JOINT RightForeArm
							{
								OFFSET -11.72811 -0.00000 0.00000
								CHANNELS 3 Xrotation Yrotation Zrotation
								JOINT RightForeArmRoll
								{
									OFFSET -4.84160 -0.00000 0.00000
									CHANNELS 3 Xrotation Yrotation Zrotation
									JOINT RightHand
									{
										OFFSET -5.00396 -0.00000 0.00000
										CHANNELS 3 Xrotation Yrotation Zrotation
										JOINT RightHandEnd
										{
											OFFSET -2.83688 -0.00000 0.00000
											CHANNELS 3 Xrotation Yrotation Zrotation
											End Site
											{
												OFFSET -2.83688 -0.00000 0.00000
											}
										}
										JOINT RightHandThumb1
										{
											OFFSET -1.13475 -1.89125 -0.75650
											CHANNELS 3 Xrotation Yrotation Zrotation
											End Site
											{
												OFFSET -2.74021 -0.73424 0.00000
											}
										}
									}
								}
							}
						}
					}
					JOINT LeftShoulder
					{
						OFFSET 1.21056 -2.01760 6.53702
						CHANNELS 3 Zrotation Xrotation Yrotation
						JOINT LeftArm
						{
							OFFSET 6.01245 0.00000 0.00000
							CHANNELS 3 Yrotation Zrotation Xrotation
							JOINT LeftForeArm
							{
								OFFSET 11.72811 0.00000 0.00000
								CHANNELS 3 Xrotation Yrotation Zrotation
								JOINT LeftForeArmRoll
								{
									OFFSET 4.84160 0.00000 0.00000
									CHANNELS 3 Xrotation Yrotation Zrotation
									JOINT LeftHand
									{
										OFFSET 5.00396 0.00000 0.00000
										CHANNELS 3 Xrotation Yrotation Zrotation
										JOINT LeftHandEnd
										{
											OFFSET 2.83688 0.00000 0.00000
											CHANNELS 3 Xrotation Yrotation Zrotation
											End Site
											{
												OFFSET 2.83688 0.00000 0.00000
											}
										}
										JOINT LeftHandThumb1
										{
											OFFSET 1.13475 -1.89125 -0.75650
											CHANNELS 3 Xrotation Yrotation Zrotation
											End Site
											{
												OFFSET 2.74021 -0.73424 0.00000
											}
										}
									}
								}
							}
						}
					}
				}
			}
		}
	}
	JOINT RightUpLeg
	{
		OFFSET -3.59133 0.00000 -1.04915
		CHANNELS 3 Yrotation Zrotation Xrotation
		JOINT RightLeg
		{
			OFFSET 0.00000 0.00000 -15.86148
			CHANNELS 3 Xrotation Yrotation Zrotation
			JOINT RightFoot
			{
				OFFSET 0.00000 0.00000 -17.16446
				CHANNELS 3 Xrotation Zrotation Yrotation
				JOINT RightToeBase
				{
					OFFSET 0.00000 -6.77704 -2.46664
					CHANNELS 3 Yrotation Zrotation Xrotation
					End Site
					{
						OFFSET -0.00000 -2.90534 0.00000
					}
				}
			}
		}
	}
	JOINT LeftUpLeg
	{
		OFFSET 3.59133 0.00000 -1.04915
		CHANNELS 3 Yrotation Zrotation Xrotation
		JOINT LeftLeg
		{
			OFFSET 0.00000 0.00000 -15.86148
			CHANNELS 3 Xrotation Yrotation Zrotation
			JOINT LeftFoot
			{
				OFFSET 0.00000 0.00000 -17.16446
				CHANNELS 3 Xrotation Zrotation Yrotation
				JOINT LeftToeBase
				{
					OFFSET 0.00000 -6.77704 -2.46664
					CHANNELS 3 Yrotation Zrotation Xrotation
					End Site
					{
						OFFSET -0.00000 -2.90534 0.00000
					}
				}
			}
		}
	}
}
MOTION
Frames: 10
Frame Time: 0.008333
 -0.2200 38.2207 -0.7859 -88.9148 0.1405 -0.1544 -0.2268 0.0141 0.3489 -0.5910 -0.0005 0.0052 1.3803 0.3580 0.4789 0.1087 -0.0591 -0.4185 -1.2401 -0.1736 -0.0402 -0.9924 -1.0306 -0.1374 -0.4691 4.4878 -5.9837 -69.4368 -1.3816 20.6954 -0.0000 0.0000 31.2468 -4.1959 0.0000 -0.0000 -0.4139 7.8755 3.0182 0.0000 -0.0000 -0.0000 -0.0000 0.0000 -0.0000 2.3785 5.3569 6.1359 72.2214 -11.9672 36.6322 -0.0000 -0.0000 -19.2304 -5.6159 -0.0000 -0.0000 0.1321 -21.6433 0.3581 0.0000 -0.0000 -0.0000 0.0000 0.0000 0.0000 4.1078 -9.4379 -0.8131 14.6757 0.0000 0.0000 -14.8736 -0.0163 -4.8130 -0.0000 0.0000 0.7245 -5.1536 -0.5329 0.0902 11.5541 0.0000 0.0000 -12.5785 2.6789 7.4579 -0.0000 0.0000 0.9038
 -0.2210 38.2216 -0.7856 -88.9186 0.1429 -0.1505 -0.2221 0.0146 0.3493 -0.5854 -0.0003 0.0031 1.3819 0.3636 0.4775 0.1083 -0.0576 -0.4212 -1.2278 -0.1760 -0.0453 -0.9911 -1.0356 -0.1319 -0.4384 4.3792 -6.0023 -69.4320 -1.5330 20.6906 -0.0000 0.0000 31.2962 -4.4122 -0.0000 0.0000 -0.4320 7.9971 3.1024 -0.0000 -0.0000 -0.0000 0.0000 -0.0000 -0.0000 2.3794 5.3527 6.1424 72.2165 -11.9576 36.5939 0.0000 -0.0000 -19.2285 -5.6229 -0.0000 -0.0000 0.1249 -21.6055 0.3393 0.0000 -0.0000 -0.0000 -0.0000 -0.0000 0.0000 4.1011 -9.4253 -0.7992 14.6578 0.0000 0.0000 -14.8667 -0.0232 -4.7870 -0.0000 0.0000 0.7265 -5.1589 -0.5408 0.1082 11.5309 0.0000 0.0000 -12.5699 2.6846 7.4572 -0.0000 0.0000 0.9113
 -0.2224 38.2211 -0.7883 -88.9083 0.1431 -0.1600 -0.2237 0.0138 0.3528 -0.5864 -0.0002 0.0058 1.3810 0.3635 0.4818 0.1088 -0.0572 -0.4187 -1.2181 -0.1744 -0.0437 -0.9852 -1.0233 -0.1529 -0.4392 4.3734 -6.0127 -69.4481 -1.5296 20.6983 -0.0000 0.0000 31.2771 -4.2157 -0.0000 0.0000 -0.4191 7.9658 3.0212 -0.0000 0.0000 -0.0000 0.0000 0.0000 -0.0000 2.3789 5.3459 6.1271 72.2195 -11.9429 36.5813 0.0000 -0.0000 -19.2329 -5.5656 -0.0000 0.0000 0.1322 -21.5992 0.3592 0.0000 -0.0000 -0.0000 0.0000 -0.0000 0.0000 4.1085 -9.4204 -0.8108 14.6533 0.0000 0.0000 -14.8643 -0.0298 -4.8017 -0.0000 0.0000 0.7481 -5.1467 -0.5663 0.1032 11.5100 0.0000 0.0000 -12.5641 2.7032 7.4248 -0.0000 0.0000 0.9124
 -0.2218 38.2194 -0.7915 -88.9058 0.1292 -0.1872 -0.2181 0.0137 0.3706 -0.5747 0.0001 0.0057 1.3711 0.3756 0.4861 0.1054 -0.0568 -0.4160 -1.2077 -0.1624 -0.0310 -0.9828 -1.0285 -0.1719 -0.4457 4.3821 -6.0153 -69.4597 -1.5166 20.7147 -0.0000 -0.0000 31.2781 -4.1861 -0.0000 0.0000 -0.4114 7.9687 2.9648 -0.0000 0.0000 -0.0000 -0.0000 0.0000 -0.0000 2.3858 5.3253 6.1009 72.2412 -11.9148 36.5808 -0.0000 0.0000 -19.2352 -5.5045 0.0000 -0.0000 0.1384 -21.6232 0.3756 0.0000 0.0000 -0.0000 -0.0000 -0.0000 0.0000 4.1543 -9.3591 -0.8017 14.6055 0.0000 0.0000 -14.8573 0.0198 -4.7981 -0.0000 0.0000 0.6876 -5.1097 -0.5648 0.1029 11.5040 -0.0000 -0.0000 -12.5615 2.7246 7.3833 -0.0000 0.0000 0.9225
 -0.2240 38.2190 -0.7942 -88.8936 0.1301 -0.1875 -0.2173 0.0126 0.3736 -0.5718 0.0002 0.0093 1.3641 0.3745 0.4814 0.1051 -0.0566 -0.4145 -1.1916 -0.1608 -0.0428 -0.9961 -1.0177 -0.1719 -0.4524 4.3800 -6.0290 -69.4577 -1.5097 20.7529 -0.0000 0.0000 31.2761 -4.2777 0.0000 -0.0000 -0.4157 8.0025 2.9834 -0.0000 -0.0000 -0.0000 -0.0000 -0.0000 0.0000 2.3905 5.2937 6.0438 72.2799 -11.8670 36.3020 -0.0000 0.0000 -19.2964 -4.5049 -0.0000 0.0000 0.4230 -20.7707 1.1925 -0.0000 0.0000 -0.0000 -0.0000 -0.0000 0.0000 4.1520 -9.3657 -0.8178 14.6033 0.0000 0.0000 -14.8466 0.0296 -4.7725 -0.0000 0.0000 0.6586 -5.1090 -0.5635 0.0887 11.4966 0.0000 0.0000 -12.5602 2.7279 7.3597 -0.0000 0.0000 0.9147
 -0.2260 38.2202 -0.7969 -88.8736 0.1286 -0.1857 -0.2220 0.0125 0.3757 -0.5795 -0.0001 0.0089 1.3654 0.3773 0.4805 0.1078 -0.0574 -0.4151 -1.1940 -0.1528 -0.0397 -0.9763 -1.0207 -0.1854 -0.4747 4.4693 -6.0308 -69.4724 -1.3963 20.7530 -0.0000 0.0000 31.2532 -4.4286 0.0000 0.0000 -0.4249 8.0283 3.0399 -0.0000 0.0000 -0.0000 0.0000 -0.0000 -0.0000 2.3965 5.3101 6.0739 72.2487 -11.8899 36.4865 0.0000 0.0000 -19.2458 -5.4338 -0.0000 0.0000 0.1514 -21.4677 0.4138 0.0000 0.0000 -0.0000 0.0000 0.0000 0.0000 4.1444 -9.3879 -0.8489 14.6120 -0.0000 0.0000 -14.8474 0.0438 -4.7776 -0.0000 0.0000 0.6897 -5.1078 -0.6076 0.0747 11.4742 0.0000 0.0000 -12.5475 2.7760 7.3540 -0.0000 0.0000 0.8935
 -0.2285 38.2226 -0.7998 -88.8602 0.1281 -0.1669 -0.2269 0.0118 0.3611 -0.5897 -0.0003 0.0072 1.3810 0.3781 0.4768 0.1121 -0.0571 -0.4161 -1.1931 -0.1480 -0.0419 -0.9720 -1.0173 -0.1756 -0.4514 4.3913 -6.0439 -69.4667 -1.4895 20.7592 -0.0000 -0.0000 31.2786 -4.5466 0.0000 -0.0000 -0.4328 8.0460 3.0891 -0.0000 -0.0000 -0.0000 0.0000 -0.0000 -0.0000 2.3997 5.3250 6.1069 72.2082 -11.9086 36.6200 -0.0000 0.0000 -19.2330 -4.4725 0.0000 -0.0000 0.3953 -21.3133 1.0875 -0.0000 0.0000 -0.0000 0.0000 -0.0000 0.0000 4.1067 -9.4657 -0.8871 14.6607 -0.0000 0.0000 -14.8328 0.0315 -4.7849 -0.0000 0.0000 0.6883 -5.1304 -0.6146 0.0635 11.4601 0.0000 0.0000 -12.5370 2.7916 7.3834 -0.0000 0.0000 0.8892
 -0.2289 38.2222 -0.8024 -88.8471 0.1240 -0.1751 -0.2317 0.0110 0.3637 -0.5977 -0.0002 0.0089 1.3903 0.3779 0.4837 0.1145 -0.0580 -0.4148 -1.1931 -0.1467 -0.0304 -0.9696 -1.0115 -0.2101 -0.4517 4.3737 -6.0514 -69.4679 -1.4984 20.7974 -0.0000 0.0000 31.2744 -4.5965 -0.0000 0.0000 -0.4349 8.0420 3.1054 -0.0000 0.0000 -0.0000 -0.0000 0.0000 -0.0000 2.4132 5.3333 6.0941 72.2091 -11.9160 36.6467 0.0000 -0.0000 -19.2299 -4.4240 -0.0000 -0.0000 0.4052 -21.3410 1.1133 -0.0000 0.0000 -0.0000 -0.0000 -0.0000 -0.0000 4.1157 -9.4795 -0.9042 14.6613 0.0000 0.0000 -14.8351 0.0434 -4.8030 -0.0000 0.0000 0.6714 -5.1207 -0.6139 0.0532 11.4468 0.0000 0.0000 -12.5327 2.7988 7.3698 -0.0000 0.0000 0.8894
 -0.2294 38.2214 -0.8060 -88.8259 0.1210 -0.1840 -0.2366 0.0092 0.3658 -0.6060 -0.0006 0.0108 1.3958 0.3733 0.4869 0.1168 -0.0618 -0.4120 -1.1909 -0.1397 -0.0256 -0.9789 -1.0133 -0.2171 -0.4451 4.3765 -6.0640 -69.4669 -1.4859 20.8045 -0.0000 0.0000 31.2801 -4.7573 -0.0000 0.0000 -0.4460 8.0999 3.1620 -0.0000 0.0000 -0.0000 0.0000 -0.0000 -0.0000 2.4325 5.3408 6.0840 72.2043 -11.9221 36.6615 0.0000 -0.0000 -19.2313 -4.3540 0.0000 -0.0000 0.4229 -21.3108 1.1635 -0.0000 -0.0000 0.0000 -0.0000 0.0000 -0.0000 4.1242 -9.5045 -0.9404 14.6738 0.0000 0.0000 -14.8362 0.0650 -4.8051 -0.0000 0.0000 0.6582 -5.1133 -0.6071 0.0269 11.4425 0.0000 0.0000 -12.5285 2.8031 7.3959 -0.0000 -0.0000 0.8882
 -0.2304 38.2222 -0.8085 -88.8179 0.1219 -0.1869 -0.2396 0.0086 0.3655 -0.6126 -0.0011 0.0091 1.4059 0.3683 0.4940 0.1201 -0.0641 -0.4092 -1.1832 -0.1418 -0.0373 -0.9749 -0.9993 -0.2134 -0.4372 4.3834 -6.0732 -69.4746 -1.4752 20.8051 -0.0000 -0.0000 31.2753 -4.7483 0.0000 -0.0000 -0.4482 8.0899 3.1815 -0.0000 0.0000 -0.0000 0.0000 0.0000 -0.0000 2.4372 5.3602 6.0813 72.1946 -11.9384 36.6550 -0.0000 0.0000 -19.2256 -4.3435 0.0000 -0.0000 0.4256 -21.2886 1.1721 0.0000 0.0000 0.0000 0.0000 0.0000 0.0000 4.1264 -9.5131 -0.9558 14.6799 0.0000 0.0000 -14.8412 0.0770 -4.8278 -0.0000 0.0000 0.6587 -5.1104 -0.6243 0.0193 11.4307 -0.0000 0.0000 -12.5172 2.8091 7.3846 -0.0000 0.0000 0.8825
